HIERARCHY
ROOT Hips
{
 OFFSET 0.000000 0.000000 0.000000
 CHANNELS 6 Xposition Yposition Zposition Yrotation Xrotation Zrotation
 JOINT Chest
 {
  OFFSET 0.000000 9.585900 0.002600
  CHANNELS 3 Yrotation Xrotation Zrotation
  JOINT Chest2
  {
   OFFSET 0.000000 9.601200 -0.005300
   CHANNELS 3 Yrotation Xrotation Zrotation
   JOINT Chest3
   {
    OFFSET 0.000000 9.561800 0.000000
    CHANNELS 3 Yrotation Xrotation Zrotation
    JOINT Chest4
    {
     OFFSET 0.000000 9.552100 0.000000
     CHANNELS 3 Yrotation Xrotation Zrotation
     JOINT Neck
     {
      OFFSET 0.000000 14.453000 0.000000
      CHANNELS 3 Yrotation Xrotation Zrotation
      JOINT Head
      {
       OFFSET 0.000000 8.936500 -0.011300
       CHANNELS 3 Yrotation Xrotation Zrotation
       End Site
       {
        OFFSET 0.000000 17.073600 -0.006000
       }
      }
     }
     JOINT RightCollar
     {
      OFFSET -2.921100 9.558500 0.000000
      CHANNELS 3 Yrotation Xrotation Zrotation
      JOINT RightShoulder
      {
       OFFSET -13.519700 0.000000 0.000000
       CHANNELS 3 Yrotation Xrotation Zrotation
       JOINT RightElbow
       {
        OFFSET 0.000000 -29.696600 0.000000
        CHANNELS 3 Yrotation Xrotation Zrotation
        JOINT RightWrist
        {
         OFFSET 0.000000 -24.004700 0.000000
         CHANNELS 3 Yrotation Xrotation Zrotation
         End Site
         {
          OFFSET 0.000000 -17.728500 0.000000
         }
        }
       }
      }
     }
     JOINT LeftCollar
     {
      OFFSET 2.921100 9.558500 0.000000
      CHANNELS 3 Yrotation Xrotation Zrotation
      JOINT LeftShoulder
      {
       OFFSET 13.519700 0.000000 0.000000
       CHANNELS 3 Yrotation Xrotation Zrotation
       JOINT LeftElbow
       {
        OFFSET 0.000000 -29.696600 0.000000
        CHANNELS 3 Yrotation Xrotation Zrotation
        JOINT LeftWrist
        {
         OFFSET 0.000000 -24.004700 0.000000
         CHANNELS 3 Yrotation Xrotation Zrotation
         End Site
         {
          OFFSET 0.000000 -17.728500 0.000000
         }
        }
       }
      }
     }
    }
   }
  }
 }
 JOINT RightHip
 {
  OFFSET -7.771700 -0.012900 -0.001300
  CHANNELS 3 Yrotation Xrotation Zrotation
  JOINT RightKnee
  {
   OFFSET 0.000000 -40.869800 0.001200
   CHANNELS 3 Yrotation Xrotation Zrotation
   JOINT RightAnkle
   {
    OFFSET 0.000000 -39.717900 0.002100
    CHANNELS 3 Yrotation Xrotation Zrotation
    JOINT RightToe
    {
     OFFSET 0.000000 -4.965400 11.033500
     CHANNELS 3 Yrotation Xrotation Zrotation
     End Site
     {
      OFFSET 0.000000 -1.423100 5.872300
     }
    }
   }
  }
 }
 JOINT LeftHip
 {
  OFFSET 7.771700 -0.012900 -0.001300
  CHANNELS 3 Yrotation Xrotation Zrotation
  JOINT LeftKnee
  {
   OFFSET 0.000000 -40.869800 0.001200
   CHANNELS 3 Yrotation Xrotation Zrotation
   JOINT LeftAnkle
   {
    OFFSET 0.000000 -39.717900 0.002100
    CHANNELS 3 Yrotation Xrotation Zrotation
    JOINT LeftToe
    {
     OFFSET 0.000000 -4.965400 11.033500
     CHANNELS 3 Yrotation Xrotation Zrotation
     End Site
     {
      OFFSET 0.000000 -1.423100 5.872300
     }
    }
   }
  }
 }
}
MOTION
Frames: 9
Frame Time: 0.008333
0.000000 85.388000 0.000000 0.000000 -5.767877 0.000000 0.000000 11.653817 0.000000 0.000000 -5.885947 0.000000 0.000000 -0.000000 0.000000 0.000000 -0.000000 0.000000 0.000000 12.528835 0.000000 0.000000 0.711642 0.000000 0.000000 -0.000000 0.000000 0.000000 0.000000 -90.000000 0.000000 -2.309062 0.000000 0.000000 2.309062 0.000000 0.000000 -0.000000 0.000000 0.000000 -0.000000 90.000000 0.000000 -2.309062 0.000000 0.000000 2.309062 0.000000 0.000000 8.520406 0.000000 0.000000 1.905762 0.000000 -0.000000 -4.658285 0.000000 0.000000 -0.000000 0.000000 0.000000 8.520406 0.000000 0.000000 1.905762 0.000000 -0.000000 -4.658285 0.000000 0.000000 -0.000000 0.000000
-24.919643 55.232625 8.109033 -176.794102 -18.464082 -1.715600 -0.016579 16.541785 -0.077083 -0.001756 1.661107 0.008108 0.004450 2.815748 0.020828 0.019028 14.625276 0.097646 0.853875 14.382787 3.629657 0.072317 -10.583412 3.628043 0.298260 0.919816 1.766071 -2.796983 -5.769309 -6.786632 -81.909776 -48.013917 113.215107 -22.225689 -6.847614 8.336681 -5.519862 -0.981800 1.893476 8.630621 -9.134113 7.096463 72.250051 -52.434062 -112.033200 9.268924 -13.521605 4.569449 -0.499516 -56.558290 10.872247 -92.121051 87.497046 -97.401286 -10.194678 -22.155526 15.296036 0.048309 -0.071947 -0.003475 10.692806 -52.765040 -6.641182 109.154861 77.254558 105.966786 -8.842821 -24.489101 3.075445 0.030082 0.179441 0.018046
-24.924343 55.233527 8.108987 -176.787180 -18.451903 -1.691829 -0.027470 16.545737 -0.101544 -0.000085 1.672632 0.010482 0.000625 2.797089 0.018358 0.021006 14.633404 0.099247 0.848120 14.389441 3.572538 0.082310 -10.569145 3.529821 0.274012 0.943229 1.751497 -3.005560 -5.736105 -6.796363 -82.464310 -47.625496 113.913728 -22.261836 -6.365303 8.646586 -5.495464 -0.964485 1.925673 8.818652 -9.049847 7.083662 72.917239 -52.318921 -112.685363 9.387726 -13.655897 4.390823 -0.467708 -56.568959 10.822057 -92.145710 87.497768 -97.430283 -10.192629 -22.145001 15.298467 0.033211 -0.091042 0.002690 10.722942 -52.768492 -6.690961 109.134146 77.253653 105.947182 -8.855861 -24.522910 3.075037 0.043091 0.213466 0.022773
-24.925027 55.234886 8.107589 -176.782875 -18.442849 -1.691084 -0.027788 16.554345 -0.102297 0.001442 1.678438 0.011214 -0.003066 2.783664 0.018895 0.020215 14.629584 0.099282 0.845601 14.391537 3.553653 0.090819 -10.541258 3.397761 0.256152 0.966254 1.741789 -3.221097 -5.676384 -6.811947 -83.060288 -47.264594 114.660815 -22.282464 -5.878919 8.954630 -5.464377 -0.934312 1.960605 9.008660 -8.966216 7.073911 73.560346 -52.175336 -113.335835 9.521977 -13.799303 4.206301 -0.469152 -56.577502 10.826904 -92.163779 87.488528 -97.441343 -10.262654 -22.140068 15.317218 0.052240 -0.089570 0.005939 10.721585 -52.777121 -6.693767 109.127558 77.252959 105.940404 -8.865101 -24.516067 3.073692 0.046573 0.208333 0.024843
-24.925769 55.236353 8.105376 -176.780760 -18.434855 -1.688662 -0.025102 16.563733 -0.103581 0.002129 1.679917 0.011234 -0.004607 2.785564 0.018587 0.022130 14.633842 0.100493 0.834771 14.397984 3.479886 0.087401 -10.539124 3.325149 0.225998 0.974459 1.733636 -3.437585 -5.607117 -6.831796 -83.681309 -46.927884 115.447016 -22.298541 -5.409397 9.249079 -5.432722 -0.919732 2.003908 9.201722 -8.886048 7.070503 74.179818 -51.992750 -113.988294 9.663836 -13.944190 4.038585 -0.464145 -56.582875 10.823458 -92.160832 87.482374 -97.431097 -10.309363 -22.144779 15.328345 0.036655 -0.085433 0.006558 10.717591 -52.781550 -6.694060 109.114430 77.250598 105.927481 -8.887169 -24.513728 3.074967 0.055735 0.207448 0.025702
-24.926550 55.237920 8.102056 -176.777226 -18.430164 -1.685790 -0.023129 16.575564 -0.104350 0.002882 1.681253 0.011236 0.004924 2.809336 0.018864 0.036637 14.644932 0.102983 0.796151 14.398402 3.355846 0.076247 -10.560861 3.308716 0.168589 0.962466 1.727555 -3.667611 -5.536416 -6.852524 -84.310084 -46.605731 116.262319 -22.315123 -4.973359 9.524298 -5.420944 -0.928893 2.056368 9.404461 -8.809453 7.074625 74.764918 -51.774988 -114.638698 9.804198 -14.091013 3.901571 -0.459414 -56.586198 10.814487 -92.290218 87.477312 -97.556148 -10.321862 -22.152340 15.331900 0.054543 -0.087391 0.010652 10.706875 -52.782743 -6.694087 109.102069 77.248444 105.911564 -8.888963 -24.513258 3.070295 0.047385 0.208309 0.025659
-24.924930 55.239092 8.098977 -176.791684 -18.420838 -1.690585 -0.001129 16.582853 -0.090546 0.003645 1.682239 0.011418 0.006175 2.810923 0.019199 0.043647 14.648591 0.105150 0.773472 14.409238 3.266170 0.069971 -10.565943 3.254815 0.144765 0.956189 1.722251 -3.935954 -5.437380 -6.884566 -84.936223 -46.287074 117.096391 -22.343649 -4.568997 9.789566 -5.389642 -0.906457 2.101252 9.619294 -8.734061 7.085393 75.314279 -51.535312 -115.277911 9.934221 -14.247830 3.790422 -0.458875 -56.594789 10.828961 -92.298342 87.481633 -97.566416 -10.303584 -22.156621 15.330299 0.084939 -0.091525 0.014810 10.700251 -52.790761 -6.676904 109.119881 77.248111 105.936091 -8.890553 -24.525276 3.055499 0.064272 0.213241 0.031787
-24.924211 55.239513 8.096960 -176.794142 -18.402563 -1.692918 0.007061 16.583098 -0.081634 0.002244 1.678050 0.009947 0.009507 2.817110 0.021242 0.049988 14.651416 0.107801 0.752389 14.411802 3.195791 0.063799 -10.565175 3.183996 0.121446 0.951448 1.713780 -4.220765 -5.335064 -6.923157 -85.550916 -45.961452 117.938635 -22.390146 -4.185518 10.060815 -5.352355 -0.882604 2.145298 9.840626 -8.658091 7.100550 75.842178 -51.285713 -115.902543 10.054836 -14.411357 3.692231 -0.461799 -56.611088 10.827183 -92.338757 87.490921 -97.618636 -10.230127 -22.167762 15.320925 0.059113 -0.100757 0.013327 10.681963 -52.809491 -6.666626 109.121902 77.244854 105.930759 -8.890045 -24.526537 3.061592 0.066628 0.214188 0.021945
-24.924444 55.239533 8.094936 -176.791556 -18.382866 -1.691230 0.010791 16.582193 -0.076131 -0.003963 1.664350 0.005069 0.017627 2.833210 0.026642 0.046403 14.642165 0.105508 0.740037 14.419278 3.145558 0.057294 -10.560473 3.101605 0.056965 1.026475 1.680535 -4.468787 -5.293532 -6.938518 -86.145480 -45.619092 118.783936 -22.439632 -3.820586 10.336254 -5.301037 -0.846561 2.191377 10.062448 -8.578679 7.117237 76.361139 -51.033635 -116.519024 10.164330 -14.572541 3.602031 -0.461974 -56.629844 10.824748 -92.395776 87.491808 -97.677532 -10.234223 -22.172452 15.325556 0.057994 -0.101091 0.014204 10.677966 -52.830461 -6.672423 109.128845 77.242147 105.934241 -8.889618 -24.521111 3.062865 0.068623 0.209038 0.019656
